<?xml version="1.0" encoding="UTF-8" standalone="no"?>
<!DOCTYPE svg PUBLIC "-//W3C//DTD SVG 1.1//EN" "http://www.w3.org/Graphics/SVG/1.1/DTD/svg11.dtd">
<svg version="1.1" xmlns="http://www.w3.org/2000/svg" xmlns:xlink="http://www.w3.org/1999/xlink" preserveAspectRatio="xMidYMid meet" viewBox="-1 -1 644 644" width="640" height="640"><defs><path d="M0 0L640 0L640 640L0 640L0 0Z" id="bE0ylPv9"></path><path d="M564.51 229.07L567.92 234.8L571.11 240.67L574.08 246.68L576.82 252.81L579.32 259.07L581.59 265.45L583.61 271.93L585.37 278.52L586.89 285.22L588.14 292.01L589.12 298.88L589.82 305.85L590.25 312.89L590.29 314.79L590.4 320L590.4 320L590.25 327.11L589.82 334.15L589.69 335.49L589.12 341.12L588.49 345.51L588.14 347.99L586.89 354.78L585.37 361.48L584.51 364.68L583.61 368.07L583.23 369.27L581.59 374.55L579.32 380.93L576.82 387.19L575.21 390.78L574.08 393.32L571.11 399.33L569.97 401.43L567.92 405.2L564.51 410.93L563.24 412.9L560.89 416.52L557.06 421.95L553.03 427.23L552.69 427.65L548.81 432.35L544.4 437.3L543.23 438.51L539.8 442.08L535.02 446.67L530.07 451.09L524.95 455.31L519.67 459.34L514.24 463.17L508.65 466.79L502.92 470.2L497.05 473.39L491.04 476.36L484.91 479.1L478.65 481.6L478.65 481.6L473.82 483.32L472.28 483.87L465.79 485.89L459.2 487.65L452.5 489.16L445.71 490.41L438.84 491.4L431.87 492.1L424.83 492.53L417.72 492.68L410.61 492.53L403.57 492.1L396.61 491.4L389.73 490.41L382.94 489.16L376.25 487.65L369.65 485.89L363.17 483.87L356.79 481.6L350.54 479.1L344.4 476.36L340.71 474.53L342.26 473.35L348.06 468.57L353.67 463.56L359.08 458.35L364.29 452.94L369.29 447.33L374.08 441.53L375.67 439.45L377.71 440.17L382.47 441.65L387.3 442.95L392.21 444.06L397.19 444.98L402.23 445.69L407.34 446.21L412.5 446.53L417.72 446.63L422.93 446.53L428.1 446.21L433.2 445.69L438.25 444.98L443.22 444.06L448.13 442.95L452.97 441.65L457.72 440.17L462.4 438.51L466.99 436.68L471.49 434.67L475.89 432.49L480.2 430.15L484.4 427.65L488.5 425L492.48 422.19L496.35 419.23L500.11 416.14L503.74 412.9L507.24 409.53L510.61 406.02L513.85 402.39L516.95 398.64L519.9 394.77L522.71 390.78L525.36 386.69L527.86 382.48L530.2 378.18L532.38 373.77L534.39 369.27L536.23 364.69L537.89 360.01L539.37 355.25L540.66 350.42L541.77 345.51L542.69 340.53L543.41 335.49L543.93 330.38L544.24 325.22L544.35 320L544.24 314.79L543.93 309.63L543.41 304.52L542.69 299.48L541.77 294.5L540.66 289.59L539.37 284.76L537.89 280L536.23 275.32L534.39 270.73L532.38 266.24L530.2 261.83L528.44 258.58L559.52 221.54L560.89 223.48L564.51 229.07ZM395.24 381.58L395.24 381.58L353.72 431.06L353.72 431.06L352.65 432.35L348.24 437.3L343.64 442.08L340.63 444.98L338.87 446.67L333.92 451.09L328.8 455.31L323.52 459.34L318.08 463.17L312.5 466.79L306.76 470.2L300.89 473.39L294.89 476.36L288.75 479.1L282.49 481.6L276.12 483.87L269.63 485.89L263.04 487.65L256.35 489.16L249.56 490.41L242.68 491.4L235.72 492.1L228.68 492.53L221.57 492.68L214.46 492.53L207.45 492.1L200.49 491.4L193.61 490.42L193.6 490.41L186.82 489.17L180.13 487.66L173.54 485.89L167.05 483.87L167.04 483.87L160.67 481.6L160.67 481.6L154.42 479.1L148.28 476.36L148.28 476.36L142.28 473.39L136.41 470.2L130.67 466.79L125.09 463.17L119.65 459.34L114.37 455.31L109.25 451.09L104.3 446.68L99.53 442.08L94.93 437.3L90.52 432.35L86.29 427.23L82.26 421.95L78.44 416.52L75.57 412.09L134.71 412.09L135.55 412.9L139.18 416.14L142.93 419.23L146.8 422.19L150.79 425L154.89 427.65L159.09 430.15L163.4 432.49L167.8 434.67L172.3 436.68L176.89 438.51L181.56 440.17L186.32 441.65L191.15 442.95L196.06 444.06L201.04 444.98L206.08 445.69L211.19 446.21L216.35 446.53L221.57 446.63L226.79 446.53L231.95 446.21L237.05 445.69L242.1 444.98L247.08 444.06L251.98 442.95L256.82 441.65L261.58 440.17L266.25 438.51L270.84 436.68L275.34 434.67L279.74 432.49L284.05 430.15L288.25 427.65L292.35 425L296.33 422.19L300.21 419.23L303.96 416.14L307.59 412.9L310.48 410.12L311.09 409.53L314.46 406.02L317.7 402.39L318.46 401.48L318.45 401.47L341.13 374.43L341.82 373.61L341.82 373.61L373.05 336.38L403.11 372.2L395.24 381.58ZM235.72 147.9L242.68 148.6L249.56 149.59L256.35 150.84L263.04 152.35L269.63 154.11L276.12 156.13L282.49 158.4L288.75 160.9L294.89 163.64L300.89 166.61L306.76 169.8L312.5 173.21L318.08 176.83L323.52 180.66L324.54 181.44L328.8 184.69L333.92 188.91L338.87 193.33L343.64 197.92L348.24 202.7L352.65 207.65L353.74 208.97L353.74 208.97L499.85 383.1L498.91 384.34L496.38 387.41L493.73 390.38L490.97 393.25L488.1 396L485.13 398.65L482.06 401.19L478.89 403.6L475.63 405.9L472.28 408.07L468.84 410.12L465.32 412.03L464.4 412.49L318.45 238.54L318.46 238.53L317.7 237.62L314.46 233.99L311.09 230.48L307.59 227.11L303.96 223.87L300.21 220.78L296.33 217.82L294.96 216.85L292.35 215.01L288.25 212.36L284.05 209.86L279.74 207.52L275.34 205.34L270.84 203.33L269.26 202.7L266.25 201.5L261.58 199.84L256.82 198.36L251.98 197.06L247.08 195.95L242.1 195.03L237.05 194.32L237.05 194.32L231.95 193.8L226.79 193.48L221.57 193.38L216.35 193.48L216.35 193.48L211.19 193.8L211.19 193.8L206.08 194.32L201.04 195.03L196.06 195.95L191.15 197.06L186.32 198.36L181.56 199.84L176.89 201.5L173.88 202.7L172.3 203.33L167.8 205.34L163.4 207.52L159.09 209.86L154.89 212.36L150.79 215.01L146.8 217.82L142.93 220.78L139.18 223.87L135.55 227.11L134.72 227.91L75.57 227.91L78.44 223.49L80.34 220.78L82.26 218.05L86.29 212.77L89.43 208.97L90.52 207.65L94.93 202.7L99.53 197.93L104.3 193.33L104.3 193.33L109.25 188.91L114.37 184.69L114.37 184.69L119.65 180.66L125.09 176.83L130.67 173.21L136.41 169.8L136.41 169.8L142.28 166.61L148.28 163.64L154.42 160.91L154.42 160.9L160.67 158.4L167.05 156.14L173.54 154.12L180.13 152.35L186.82 150.84L193.61 149.59L200.49 148.61L207.45 147.9L214.49 147.47L221.6 147.33L228.71 147.47L235.72 147.9ZM222.95 343.6L229.92 344.31L236.79 345.29L243.58 346.54L250.27 348.05L256.87 349.82L263.35 351.84L269.73 354.1L275.99 356.6L282.12 359.34L288.13 362.31L294 365.5L299.73 368.91L305.32 372.53L308.01 374.43L306.63 376.57L304.33 379.83L301.91 383L299.38 386.07L296.73 389.04L293.97 391.91L291.1 394.66L288.13 397.31L285.06 399.85L281.9 402.26L278.63 404.56L275.28 406.73L274.27 407.34L271.28 405.56L266.97 403.22L262.57 401.04L258.07 399.03L253.48 397.19L248.81 395.53L244.05 394.05L239.22 392.76L234.31 391.65L229.33 390.73L224.29 390.01L219.18 389.49L214.02 389.18L208.8 389.07L208.8 389.07L63.21 389.07L62.37 387.19L59.86 380.93L57.6 374.55L55.58 368.07L53.81 361.48L52.3 354.78L51.05 347.99L50.34 343.03L208.8 343.03L215.91 343.17L222.95 343.6ZM519.67 180.66L524.95 184.69L530.07 188.91L535.02 193.33L539.8 197.93L544.4 202.7L544.88 203.25L470.38 292.04L470.38 292.04L463.22 300.57L433.16 264.75L475.01 214.88L475.01 214.88L509.51 173.77L514.24 176.83L519.67 180.66ZM281.3 236.4L284.46 238.81L287.53 241.35L290.5 244L293.37 246.75L296.13 249.62L298.78 252.59L301.31 255.66L303.73 258.83L306.03 262.09L308.01 265.15L304.72 267.47L299.13 271.09L293.4 274.5L287.53 277.69L281.52 280.66L275.39 283.4L269.13 285.91L262.76 288.17L256.27 290.19L249.68 291.96L242.98 293.47L236.2 294.72L229.32 295.7L222.36 296.41L215.32 296.84L208.2 296.98L208.2 296.98L208.2 250.93L208.2 250.93L213.42 250.83L218.58 250.51L223.69 249.99L228.73 249.27L233.71 248.36L238.62 247.25L243.45 245.95L248.21 244.47L252.88 242.81L257.47 240.98L261.97 238.97L266.38 236.79L270.68 234.45L274.8 232L278.03 234.1L281.3 236.4ZM49.6 296.98L50.31 292.01L51.56 285.22L53.07 278.52L54.84 271.93L56.86 265.45L59.12 259.07L61.63 252.81L62.47 250.93L208.2 250.93L208.2 296.98L49.6 296.98ZM431.87 147.9L431.87 147.9L438.84 148.6L438.84 148.6L445.71 149.59L452.5 150.84L459.2 152.35L465.79 154.11L465.79 154.11L467.89 154.77L472.28 156.13L478.65 158.4L484.91 160.9L488.74 162.61L457.55 199.78L452.97 198.36L448.13 197.06L443.22 195.95L438.25 195.03L433.2 194.32L428.1 193.8L422.93 193.48L417.72 193.38L412.5 193.48L407.34 193.8L402.23 194.32L397.19 195.03L392.21 195.95L390.8 196.27L390.8 196.27L387.31 197.06L382.48 198.35L377.72 199.83L375.68 200.56L374.08 198.47L369.29 192.67L364.29 187.06L359.08 181.65L353.67 176.44L348.06 171.43L342.26 166.65L340.71 165.47L344.4 163.64L350.54 160.9L356.79 158.4L363.17 156.13L369.65 154.11L376.25 152.35L382.94 150.84L389.73 149.59L396.61 148.6L403.57 147.9L410.61 147.47L410.61 147.47L417.72 147.32L424.83 147.47L431.87 147.9Z" id="b1zBfJRSMV"></path></defs><g><g><use xlink:href="#bE0ylPv9" opacity="1" fill="#ffffff" fill-opacity="1"></use></g><g><use xlink:href="#b1zBfJRSMV" opacity="1" fill="#000000" fill-opacity="1"></use></g></g></svg>